<svg xmlns="http://www.w3.org/2000/svg" version="1.1" xmlns:xlink="http://www.w3.org/1999/xlink" xmlns:svgjs="http://svgjs.dev/svgjs" width="2000" height="494" viewBox="0 0 2000 494"><g transform="matrix(1,0,0,1,-1.2121212121212466,-0.238879255061903)"><svg viewBox="0 0 396 98" data-background-color="#ffffff" preserveAspectRatio="xMidYMid meet" height="494" width="2000" xmlns="http://www.w3.org/2000/svg" xmlns:xlink="http://www.w3.org/1999/xlink"><g id="tight-bounds" transform="matrix(1,0,0,1,0.2400000000000091,0.047389002016331006)"><svg viewBox="0 0 395.52 97.90522199596732" height="97.90522199596732" width="395.52"><g><svg viewBox="0 0 502.3521201366898 124.34995914777373" height="97.90522199596732" width="395.52"><g transform="matrix(1,0,0,1,106.83212013668978,17.18584818901938)"><svg viewBox="0 0 395.52 89.97826276973497" height="89.97826276973497" width="395.52"><g id="textblocktransform"><svg viewBox="0 0 395.52 89.97826276973497" height="89.97826276973497" width="395.52" id="textblock"><g><svg viewBox="0 0 395.52 49.771663685152056" height="49.771663685152056" width="395.52"><g transform="matrix(1,0,0,1,0,0)"><svg width="395.52" viewBox="2.27 -41.19 436.68 54.959999999999994" height="49.771663685152056" data-palette-color="#ffffff"><path d="M19.02 0L10.99-26.22 8.25 0 2.27 0 8.25-35.16 17.11-35.16 25.34-8.33 33.67-35.16 42.53-35.16 47.51 0 37.65 0 34.74-25.54 27.88 0 19.02 0ZM61.59-35.01L61.59-35.01Q61.59-34.08 61.24-33.25 60.89-32.42 60.28-31.81 59.67-31.2 58.84-30.85 58.01-30.49 57.08-30.49L57.08-30.49Q56.15-30.49 55.33-30.85 54.51-31.2 53.9-31.81 53.29-32.42 52.94-33.25 52.59-34.08 52.59-35.01L52.59-35.01Q52.59-35.94 52.94-36.76 53.29-37.57 53.9-38.18 54.51-38.79 55.33-39.15 56.15-39.5 57.08-39.5L57.08-39.5Q58.01-39.5 58.84-39.15 59.67-38.79 60.28-38.18 60.89-37.57 61.24-36.76 61.59-35.94 61.59-35.01ZM61.23-28.17L61.23 0 52.95 0 52.95-28.17 61.23-28.17ZM94.16-21.22L94.16-21.22 90.6-19.8Q89.74-22.49 87.74-23.93 85.74-25.37 82.93-25.37L82.93-25.37Q81.42-25.37 80.23-24.89 79.05-24.41 78.16-23.58 77.27-22.75 76.64-21.66 76.02-20.56 75.63-19.31 75.24-18.07 75.07-16.74 74.9-15.41 74.9-14.16L74.9-14.16Q74.9-12.82 75.04-11.45 75.19-10.08 75.54-8.83 75.9-7.57 76.48-6.48 77.07-5.4 77.96-4.59 78.85-3.78 80.09-3.32 81.32-2.86 82.93-2.86L82.93-2.86Q84.22-2.86 85.4-3.25 86.57-3.64 87.54-4.35 88.52-5.05 89.28-6.03 90.03-7.01 90.47-8.2L90.47-8.2 94.06-6.88Q93.26-4.96 91.93-3.55 90.6-2.15 88.91-1.23 87.23-0.32 85.3 0.12 83.37 0.56 81.39 0.56L81.39 0.56Q78.19 0.56 75.46-0.52 72.72-1.61 70.73-3.58 68.75-5.54 67.62-8.24 66.5-10.94 66.5-14.16L66.5-14.16Q66.5-17.41 67.61-20.12 68.72-22.83 70.7-24.78 72.68-26.73 75.41-27.81 78.14-28.88 81.39-28.88L81.39-28.88Q83.44-28.88 85.4-28.43 87.35-27.98 89.02-27.04 90.69-26.1 92.02-24.66 93.35-23.22 94.16-21.22ZM127.87-16.16L127.87-16.16Q127.87-13.31 127.18-10.21 126.48-7.1 125.24-4.13 123.99-1.15 122.26 1.48 120.52 4.1 118.45 6.01L118.45 6.01 115.35 4.32Q116.01 3.1 116.59 1.59 117.18 0.07 117.66-1.62 118.13-3.32 118.51-5.13 118.89-6.93 119.15-8.7 119.4-10.47 119.54-12.15 119.67-13.82 119.67-15.26L119.67-15.26Q119.67-16.21 119.6-17.3 119.52-18.38 119.29-19.47 119.06-20.56 118.67-21.56 118.28-22.56 117.63-23.32 116.98-24.07 116.07-24.54 115.15-25 113.91-25L113.91-25Q112.69-25 111.74-24.45 110.78-23.9 110.05-23.01 109.32-22.12 108.79-20.97 108.27-19.82 107.94-18.62 107.61-17.41 107.46-16.24 107.32-15.06 107.32-14.14L107.32-14.14 107.32 0 99.04 0 99.04-38.57 107.29-38.57 107.29-24.05Q108.88-26.37 111.19-27.62 113.49-28.88 116.3-28.88L116.3-28.88Q119.23-28.88 121.4-27.93 123.58-26.98 125.02-25.28 126.46-23.58 127.17-21.25 127.87-18.92 127.87-16.16ZM161.71-28.2L161.71 0 153.46 0 153.46-3.37Q151.99-1.37 149.93-0.4 147.87 0.56 145.4 0.56L145.4 0.56Q142.18 0.56 139.64-0.59 137.1-1.73 135.34-3.72 133.58-5.71 132.66-8.4 131.73-11.08 131.73-14.16L131.73-14.16Q131.73-17.24 132.66-19.92 133.58-22.61 135.34-24.6 137.1-26.59 139.64-27.73 142.18-28.88 145.4-28.88L145.4-28.88Q147.04-28.88 148.51-28.39 149.99-27.91 151.22-27.01 152.46-26.12 153.4-24.87 154.34-23.61 154.87-22.07L154.87-22.07 158.53-28.2 161.71-28.2ZM153.41-14.16L153.41-14.16Q153.41-15.26 153.3-16.48 153.19-17.7 152.92-18.9 152.65-20.09 152.18-21.18 151.7-22.27 150.95-23.11 150.21-23.95 149.16-24.44 148.11-24.93 146.72-24.93L146.72-24.93Q145.33-24.93 144.3-24.43 143.28-23.93 142.54-23.08 141.81-22.24 141.34-21.14 140.86-20.04 140.59-18.85 140.32-17.65 140.21-16.44 140.1-15.23 140.1-14.16L140.1-14.16Q140.1-13.09 140.21-11.87 140.32-10.64 140.59-9.45 140.86-8.25 141.34-7.15 141.81-6.05 142.54-5.21 143.28-4.37 144.3-3.87 145.33-3.37 146.72-3.37L146.72-3.37Q147.99-3.37 148.98-3.89 149.97-4.42 150.71-5.3 151.45-6.18 151.97-7.3 152.48-8.42 152.8-9.62 153.12-10.82 153.26-12 153.41-13.18 153.41-14.16ZM175.38-13.38L175.38-13.38Q176.89-13.04 178.41-12.84 179.92-12.65 181.46-12.65L181.46-12.65Q183.07-12.65 184.45-12.95 185.83-13.26 186.84-13.98 187.85-14.7 188.44-15.89 189.03-17.09 189.03-18.87L189.03-18.87Q189.03-20.31 188.63-21.51 188.24-22.71 187.48-23.56 186.71-24.41 185.58-24.89 184.46-25.37 182.97-25.37L182.97-25.37Q181.58-25.37 180.47-24.85 179.36-24.34 178.52-23.47 177.67-22.61 177.07-21.46 176.48-20.31 176.09-19.07 175.7-17.82 175.52-16.55 175.35-15.28 175.35-14.16L175.35-14.16Q175.35-13.96 175.35-13.77 175.35-13.57 175.38-13.38ZM195.72-18.95L195.72-18.95Q195.72-17.21 195.15-15.86 194.59-14.5 193.63-13.48 192.66-12.45 191.39-11.74 190.12-11.04 188.68-10.58 187.24-10.13 185.72-9.94 184.19-9.74 182.75-9.74L182.75-9.74Q180.92-9.74 179.14-10 177.36-10.25 175.62-10.82L175.62-10.82Q175.89-9.2 176.48-7.75 177.06-6.3 178.04-5.21 179.02-4.13 180.44-3.49 181.87-2.86 183.83-2.86L183.83-2.86Q185.12-2.86 186.29-3.25 187.46-3.64 188.44-4.35 189.42-5.05 190.16-6.03 190.91-7.01 191.37-8.2L191.37-8.2 194.93-6.88Q194.13-4.96 192.72-3.55 191.32-2.15 189.55-1.23 187.78-0.32 185.79 0.12 183.8 0.56 181.85 0.56L181.85 0.56Q178.63 0.56 175.89-0.52 173.16-1.61 171.18-3.56 169.2-5.52 168.08-8.23 166.96-10.94 166.96-14.16L166.96-14.16Q166.96-17.38 168.08-20.09 169.2-22.8 171.18-24.76 173.16-26.71 175.89-27.8 178.63-28.88 181.85-28.88L181.85-28.88Q183.41-28.88 185.05-28.66 186.68-28.44 188.22-27.97 189.76-27.49 191.13-26.73 192.49-25.98 193.51-24.87 194.52-23.75 195.12-22.29 195.72-20.83 195.72-18.95ZM209.12-32.62L209.12 0 200.86 0 200.86-41.19 204.04-41.19 209.12-32.62ZM240.51-35.16L240.51-11.04Q240.51-7.64 239.64-4.14 238.77-0.63 237.22 2.65 235.67 5.93 233.5 8.79 231.33 11.65 228.72 13.77L228.72 13.77 224.96 11.5Q226.42 9.5 227.52 6.96 228.62 4.42 229.35 1.68 230.08-1.05 230.45-3.81 230.81-6.57 230.81-9.06L230.81-9.06 230.81-35.16 240.51-35.16ZM276.15-28.2L276.15 0 267.9 0 267.9-3.37Q266.43-1.37 264.37-0.4 262.31 0.56 259.84 0.56L259.84 0.56Q256.62 0.56 254.08-0.59 251.54-1.73 249.78-3.72 248.02-5.71 247.1-8.4 246.17-11.08 246.17-14.16L246.17-14.16Q246.17-17.24 247.1-19.92 248.02-22.61 249.78-24.6 251.54-26.59 254.08-27.73 256.62-28.88 259.84-28.88L259.84-28.88Q261.48-28.88 262.95-28.39 264.43-27.91 265.66-27.01 266.9-26.12 267.84-24.87 268.78-23.61 269.31-22.07L269.31-22.07 272.98-28.2 276.15-28.2ZM267.85-14.16L267.85-14.16Q267.85-15.26 267.74-16.48 267.63-17.7 267.36-18.9 267.09-20.09 266.62-21.18 266.14-22.27 265.39-23.11 264.65-23.95 263.6-24.44 262.55-24.93 261.16-24.93L261.16-24.93Q259.77-24.93 258.74-24.43 257.72-23.93 256.98-23.08 256.25-22.24 255.78-21.14 255.3-20.04 255.03-18.85 254.76-17.65 254.65-16.44 254.54-15.23 254.54-14.16L254.54-14.16Q254.54-13.09 254.65-11.87 254.76-10.64 255.03-9.45 255.3-8.25 255.78-7.15 256.25-6.05 256.98-5.21 257.72-4.37 258.74-3.87 259.77-3.37 261.16-3.37L261.16-3.37Q262.43-3.37 263.42-3.89 264.41-4.42 265.15-5.3 265.9-6.18 266.41-7.3 266.92-8.42 267.24-9.62 267.56-10.82 267.7-12 267.85-13.18 267.85-14.16ZM309.06-21.22L309.06-21.22 305.49-19.8Q304.64-22.49 302.64-23.93 300.63-25.37 297.83-25.37L297.83-25.37Q296.31-25.37 295.13-24.89 293.94-24.41 293.05-23.58 292.16-22.75 291.54-21.66 290.92-20.56 290.53-19.31 290.14-18.07 289.97-16.74 289.79-15.41 289.79-14.16L289.79-14.16Q289.79-12.82 289.94-11.45 290.09-10.08 290.44-8.83 290.8-7.57 291.38-6.48 291.97-5.4 292.86-4.59 293.75-3.78 294.98-3.32 296.22-2.86 297.83-2.86L297.83-2.86Q299.12-2.86 300.29-3.25 301.46-3.64 302.44-4.35 303.42-5.05 304.17-6.03 304.93-7.01 305.37-8.2L305.37-8.2 308.96-6.88Q308.15-4.96 306.82-3.55 305.49-2.15 303.81-1.23 302.12-0.32 300.19 0.12 298.27 0.56 296.29 0.56L296.29 0.56Q293.09 0.56 290.36-0.52 287.62-1.61 285.63-3.58 283.64-5.54 282.52-8.24 281.4-10.94 281.4-14.16L281.4-14.16Q281.4-17.41 282.51-20.12 283.62-22.83 285.6-24.78 287.57-26.73 290.31-27.81 293.04-28.88 296.29-28.88L296.29-28.88Q298.34-28.88 300.29-28.43 302.25-27.98 303.92-27.04 305.59-26.1 306.92-24.66 308.25-23.22 309.06-21.22ZM322.19-9.47L322.19 0 313.94 0 313.94-38.57 322.19-38.57 322.19-13.26Q324.22-14.72 326.18-16.48 328.15-18.24 329.93-20.18 331.71-22.12 333.24-24.15 334.76-26.17 335.91-28.2L335.91-28.2 341.53-28.2Q339.82-25.32 337.47-22.45 335.13-19.58 332.37-16.97L332.37-16.97 341.62 0 332.52 0 325.95-11.77Q324.12-10.52 322.19-9.47L322.19-9.47ZM369.94-9.01L369.94-9.01Q369.94-7.15 369.4-5.71 368.87-4.27 367.94-3.21 367.01-2.15 365.74-1.43 364.47-0.71 363.02-0.27 361.57 0.17 359.98 0.37 358.39 0.56 356.83 0.56L356.83 0.56Q354.73 0.56 353.12 0.29 351.51 0.02 350.04-0.57 348.58-1.17 347.13-2.12 345.67-3.08 343.89-4.44L343.89-4.44 348.7-8.37Q349.36-7.13 350.45-6.12 351.53-5.1 352.7-4.37 353.88-3.64 354.97-3.25 356.07-2.86 356.76-2.86L356.76-2.86Q357.32-2.86 358.03-2.89 358.73-2.93 359.47-3.04 360.2-3.15 360.91-3.37 361.62-3.59 362.16-3.97 362.71-4.35 363.04-4.92 363.37-5.49 363.37-6.3L363.37-6.3Q363.37-7.13 362.95-7.75 362.52-8.37 361.84-8.84 361.15-9.3 360.27-9.62 359.39-9.94 358.5-10.18 357.61-10.42 356.78-10.61 355.95-10.79 355.34-10.96L355.34-10.96Q354.22-11.28 352.97-11.61 351.73-11.94 350.51-12.37 349.29-12.79 348.18-13.38 347.06-13.96 346.22-14.78 345.38-15.6 344.88-16.71 344.38-17.82 344.38-19.31L344.38-19.31Q344.38-22.05 345.47-23.89 346.55-25.73 348.33-26.84 350.12-27.95 352.39-28.42 354.66-28.88 357-28.88L357-28.88Q358.61-28.88 360.39-28.55 362.18-28.22 363.86-27.58 365.55-26.93 367.01-26 368.48-25.07 369.45-23.88L369.45-23.88 364.64-19.92Q364.11-21.39 363.24-22.44 362.37-23.49 361.36-24.16 360.35-24.83 359.28-25.15 358.22-25.46 357.32-25.46L357.32-25.46Q356.44-25.46 355.34-25.39 354.24-25.32 353.28-24.98 352.31-24.63 351.64-23.94 350.97-23.24 350.97-22.02L350.97-22.02Q350.97-21.14 351.37-20.52 351.78-19.9 352.44-19.45 353.1-18.99 353.94-18.69 354.78-18.38 355.66-18.15 356.54-17.92 357.37-17.75 358.2-17.58 358.86-17.38L358.86-17.38Q359.98-17.07 361.24-16.74 362.49-16.41 363.72-15.98 364.94-15.55 366.07-14.98 367.21-14.4 368.06-13.57 368.92-12.74 369.43-11.63 369.94-10.52 369.94-9.01ZM404.92-14.16L404.92-14.16Q404.92-11.96 404.34-10.03 403.75-8.11 402.71-6.47 401.68-4.83 400.21-3.53 398.75-2.22 397-1.32 395.26-0.42 393.27 0.07 391.28 0.56 389.18 0.56L389.18 0.56Q387.08 0.56 385.1 0.07 383.12-0.42 381.38-1.32 379.63-2.22 378.17-3.53 376.7-4.83 375.66-6.47 374.63-8.11 374.04-10.05 373.45-11.99 373.45-14.16L373.45-14.16Q373.45-16.33 374.04-18.27 374.63-20.21 375.66-21.85 376.7-23.49 378.17-24.79 379.63-26.1 381.38-27 383.12-27.91 385.1-28.39 387.08-28.88 389.18-28.88L389.18-28.88Q391.28-28.88 393.27-28.39 395.26-27.91 397-27 398.75-26.1 400.21-24.79 401.68-23.49 402.71-21.85 403.75-20.21 404.34-18.27 404.92-16.33 404.92-14.16ZM396.53-14.16L396.53-14.16Q396.53-15.33 396.39-16.64 396.26-17.94 395.94-19.2 395.62-20.46 395.07-21.62 394.52-22.78 393.72-23.65 392.91-24.51 391.79-25.04 390.67-25.56 389.18-25.56L389.18-25.56Q387.76-25.56 386.66-25.02 385.56-24.49 384.75-23.6 383.93-22.71 383.38-21.53 382.83-20.36 382.49-19.1 382.15-17.85 382-16.56 381.85-15.28 381.85-14.16L381.85-14.16Q381.85-13.04 382-11.76 382.15-10.47 382.49-9.2 382.83-7.93 383.38-6.77 383.93-5.62 384.75-4.72 385.56-3.83 386.66-3.3 387.76-2.76 389.18-2.76L389.18-2.76Q390.64-2.76 391.76-3.28 392.89-3.81 393.71-4.69 394.52-5.57 395.06-6.71 395.6-7.86 395.93-9.13 396.26-10.4 396.39-11.69 396.53-12.99 396.53-14.16ZM438.95-16.16L438.95-16.16Q438.95-13.31 438.26-10.21 437.56-7.1 436.32-4.13 435.07-1.15 433.34 1.48 431.61 4.1 429.53 6.01L429.53 6.01 426.43 4.32Q427.09 3.1 427.67 1.59 428.26 0.07 428.74-1.62 429.21-3.32 429.59-5.13 429.97-6.93 430.23-8.7 430.48-10.47 430.62-12.15 430.75-13.82 430.75-15.26L430.75-15.26Q430.75-16.21 430.68-17.3 430.6-18.38 430.37-19.47 430.14-20.56 429.75-21.56 429.36-22.56 428.71-23.32 428.07-24.07 427.15-24.54 426.23-25 424.99-25L424.99-25Q423.77-25 422.82-24.45 421.86-23.9 421.13-23.01 420.4-22.12 419.87-20.97 419.35-19.82 419.02-18.62 418.69-17.41 418.54-16.24 418.4-15.06 418.4-14.14L418.4-14.14 418.4 0 410.12 0 410.12-28.2 413.3-28.2 417.08-21.63Q417.76-23.27 418.79-24.61 419.81-25.95 421.11-26.9 422.4-27.86 423.98-28.37 425.55-28.88 427.38-28.88L427.38-28.88Q430.31-28.88 432.48-27.93 434.66-26.98 436.1-25.28 437.54-23.58 438.25-21.25 438.95-18.92 438.95-16.16Z" opacity="1" transform="matrix(1,0,0,1,0,0)" fill="#ffffff" class="wordmark-text-0" data-fill-palette-color="primary" id="text-0"></path></svg></g></svg></g><g transform="matrix(1,0,0,1,0,61.521558961288015)"><svg viewBox="0 0 232.209792 28.456703808446957" height="28.456703808446957" width="232.209792"><g transform="matrix(1,0,0,1,0,0)"><svg width="232.209792" viewBox="1 -35.5 293.62 35.99" height="28.456703808446957" data-palette-color="#ffffff"><path d="M20.85-32.01L12.5-32.01 12.5 0 9.35 0 9.35-32.01 1-32.01 1-35.01 20.85-35.01 20.85-32.01ZM29.1-31.01L25.61-31.01 25.61-35.01 29.1-35.01 29.1-31.01ZM28.85 0L25.85 0 25.85-25 28.85-25 28.85 0ZM52.56-6.86L52.56-6.86Q52.56-5.35 51.98-4 51.41-2.66 50.41-1.66 49.41-0.66 48.07-0.09 46.72 0.49 45.21 0.49L45.21 0.49 43.21 0.49Q41.69 0.49 40.35-0.09 39.01-0.66 38.01-1.66 37.01-2.66 36.43-4 35.86-5.35 35.86-6.86L35.86-6.86 35.86-18.14Q35.86-19.65 36.43-21 37.01-22.34 38.01-23.34 39.01-24.34 40.35-24.91 41.69-25.49 43.21-25.49L43.21-25.49 45.21-25.49Q46.72-25.49 48.07-24.91 49.41-24.34 50.41-23.34 51.41-22.34 51.98-21 52.56-19.65 52.56-18.14L52.56-18.14 52.56-17.14 49.56-16.65 49.56-18.31Q49.56-19.21 49.21-20.01 48.87-20.8 48.29-21.39 47.7-21.97 46.91-22.31 46.11-22.66 45.21-22.66L45.21-22.66 43.21-22.66Q42.3-22.66 41.51-22.31 40.72-21.97 40.13-21.39 39.55-20.8 39.2-20.01 38.86-19.21 38.86-18.31L38.86-18.31 38.86-6.69Q38.86-5.79 39.2-4.99 39.55-4.2 40.13-3.61 40.72-3.03 41.51-2.69 42.3-2.34 43.21-2.34L43.21-2.34 45.21-2.34Q46.11-2.34 46.91-2.69 47.7-3.03 48.29-3.61 48.87-4.2 49.21-4.99 49.56-5.79 49.56-6.69L49.56-6.69 49.56-8.35 52.56-7.86 52.56-6.86ZM76.77 0L72.87 0 62.66-12.5 72.87-25 76.77-25 66.33-12.5 76.77 0ZM62.08 0L59.07 0 59.07-35.01 62.08-35.01 62.08 0ZM97.48-6.86L97.48-6.86Q97.48-5.35 96.9-4 96.33-2.66 95.33-1.66 94.33-0.66 92.98-0.09 91.64 0.49 90.13 0.49L90.13 0.49 88.12 0.49Q86.61 0.49 85.27-0.09 83.93-0.66 82.92-1.66 81.92-2.66 81.35-4 80.78-5.35 80.78-6.86L80.78-6.86 80.78-18.14Q80.78-19.65 81.35-21 81.92-22.34 82.92-23.34 83.93-24.34 85.27-24.91 86.61-25.49 88.12-25.49L88.12-25.49 90.13-25.49Q91.64-25.49 92.98-24.91 94.33-24.34 95.33-23.34 96.33-22.34 96.9-21 97.48-19.65 97.48-18.14L97.48-18.14 97.48-12.26 83.78-12.26 83.78-6.69Q83.78-5.79 84.12-4.99 84.46-4.2 85.05-3.61 85.63-3.03 86.43-2.69 87.22-2.34 88.12-2.34L88.12-2.34 90.13-2.34Q91.03-2.34 91.82-2.69 92.62-3.03 93.2-3.61 93.79-4.2 94.13-4.99 94.47-5.79 94.47-6.69L94.47-6.69 94.47-8.35 97.48-7.86 97.48-6.86ZM94.47-14.6L94.47-18.31Q94.47-19.21 94.13-20.01 93.79-20.8 93.2-21.39 92.62-21.97 91.82-22.31 91.03-22.66 90.13-22.66L90.13-22.66 88.12-22.66Q87.22-22.66 86.43-22.31 85.63-21.97 85.05-21.39 84.46-20.8 84.12-20.01 83.78-19.21 83.78-18.31L83.78-18.31 83.78-14.6 94.47-14.6ZM115.32 0L112.59 0Q111.22 0 110.01-0.51 108.8-1.03 107.91-1.93 107.02-2.83 106.49-4.03 105.97-5.22 105.97-6.59L105.97-6.59 105.97-22.14 101.48-22.14 101.48-25 105.97-25 105.97-31.01 108.97-31.49 108.97-25 115.32-25 115.32-22.14 108.97-22.14 108.97-6.45Q108.97-5.69 109.25-5.04 109.53-4.39 110.02-3.91 110.51-3.42 111.17-3.14 111.83-2.86 112.59-2.86L112.59-2.86 115.32-2.86 115.32 0ZM138.02-6.35L138.02-6.35Q138.02-4.83 137.41-3.58 136.8-2.32 135.75-1.42 134.7-0.51 133.32-0.01 131.94 0.49 130.43 0.49L130.43 0.49 128.43 0.49Q126.91 0.49 125.53-0.09 124.15-0.66 123.12-1.66 122.08-2.66 121.46-4 120.83-5.35 120.83-6.86L120.83-6.86 120.83-7.86 123.84-8.35 123.84-6.69Q123.84-5.79 124.22-4.99 124.59-4.2 125.23-3.61 125.86-3.03 126.69-2.69 127.52-2.34 128.43-2.34L128.43-2.34 130.43-2.34Q131.33-2.34 132.16-2.61 132.99-2.88 133.64-3.38 134.29-3.88 134.67-4.59 135.04-5.3 135.04-6.2L135.04-6.2Q135.04-7.54 134.46-8.4 133.87-9.25 132.91-9.83 131.94-10.4 130.71-10.78 129.48-11.16 128.18-11.54 126.89-11.91 125.66-12.4 124.42-12.89 123.46-13.68 122.49-14.48 121.91-15.67 121.32-16.87 121.32-18.65L121.32-18.65Q121.32-20.17 121.91-21.42 122.49-22.68 123.5-23.58 124.5-24.49 125.83-24.99 127.16-25.49 128.67-25.49L128.67-25.49 130.43-25.49Q131.94-25.49 133.29-24.91 134.63-24.34 135.63-23.34 136.63-22.34 137.2-21 137.78-19.65 137.78-18.14L137.78-18.14 137.78-18.04 134.78-17.55 134.78-18.31Q134.78-19.21 134.43-20.01 134.09-20.8 133.51-21.39 132.92-21.97 132.13-22.31 131.33-22.66 130.43-22.66L130.43-22.66 128.67-22.66Q127.77-22.66 126.97-22.39 126.18-22.12 125.6-21.62 125.01-21.12 124.67-20.41 124.33-19.7 124.33-18.8L124.33-18.8Q124.33-17.5 124.91-16.69 125.5-15.87 126.46-15.31 127.43-14.75 128.66-14.37 129.89-13.99 131.17-13.59 132.46-13.18 133.69-12.67 134.92-12.16 135.89-11.35 136.85-10.55 137.44-9.34 138.02-8.13 138.02-6.35ZM179.37 0.49L178.94 0.49Q176.81 0.49 175.24-0.42 173.66-1.32 172.73-2.86L172.73-2.86Q171.51-1.32 169.73-0.42 167.95 0.49 165.87 0.49L165.87 0.49 164.38 0.49Q162.6 0.49 161.03-0.18 159.45-0.85 158.28-2.03 157.11-3.2 156.44-4.76 155.77-6.32 155.77-8.11L155.77-8.11 155.77-10.01Q155.77-11.25 156.1-12.39 156.43-13.53 157.04-14.5 157.65-15.48 158.48-16.27 159.31-17.07 160.33-17.6L160.33-17.6Q159.31-18.14 158.48-18.93 157.65-19.73 157.04-20.7 156.43-21.68 156.1-22.81 155.77-23.95 155.77-25.2L155.77-25.2 155.77-26.9Q155.77-28.69 156.44-30.25 157.11-31.81 158.28-32.98 159.45-34.16 161.03-34.83 162.6-35.5 164.38-35.5L164.38-35.5 165.87-35.5Q167.66-35.5 169.22-34.83 170.78-34.16 171.95-32.98 173.12-31.81 173.8-30.25 174.47-28.69 174.47-26.9L174.47-26.9 174.47-26.66 171.32-26.15 171.32-26.9Q171.32-28.08 170.88-29.09 170.44-30.1 169.68-30.86 168.93-31.62 167.91-32.06 166.9-32.5 165.73-32.5L165.73-32.5 164.53-32.5Q163.36-32.5 162.35-32.06 161.33-31.62 160.56-30.86 159.79-30.1 159.36-29.09 158.92-28.08 158.92-26.9L158.92-26.9 158.92-24.71Q158.92-23.54 159.36-22.52 159.79-21.51 160.56-20.74 161.33-19.97 162.35-19.53 163.36-19.09 164.53-19.09L164.53-19.09 171.32-19.09 171.32-22.29 174.47-22.8 174.47-19.14 179.33-19.14 179.33-16.16 174.47-16.16 174.47-7.74Q174.52-6.64 174.81-5.69 175.1-4.74 175.68-4.02 176.25-3.3 177.1-2.89 177.96-2.49 179.08-2.49L179.08-2.49 179.81-2.49 179.37 0.49ZM165.73-2.49L165.73-2.49Q166.85-2.49 167.85-2.91 168.85-3.32 169.6-4.05 170.34-4.79 170.81-5.76 171.27-6.74 171.32-7.86L171.32-7.86 171.32-16.09 164.53-16.09Q163.36-16.09 162.35-15.65 161.33-15.21 160.56-14.45 159.79-13.7 159.36-12.68 158.92-11.67 158.92-10.5L158.92-10.5 158.92-8.11Q158.92-6.93 159.36-5.92 159.79-4.91 160.56-4.14 161.33-3.37 162.35-2.93 163.36-2.49 164.53-2.49L164.53-2.49 165.73-2.49ZM215.67-32.01L207.32-32.01 207.32 0 204.17 0 204.17-32.01 195.82-32.01 195.82-35.01 215.67-35.01 215.67-32.01ZM234.37-6.86L234.37-6.86Q234.37-5.35 233.8-4 233.22-2.66 232.22-1.66 231.22-0.66 229.88-0.09 228.54 0.49 227.02 0.49L227.02 0.49 225.02 0.49Q223.51 0.49 222.16-0.09 220.82-0.66 219.82-1.66 218.82-2.66 218.25-4 217.67-5.35 217.67-6.86L217.67-6.86 217.67-18.14Q217.67-19.65 218.25-21 218.82-22.34 219.82-23.34 220.82-24.34 222.16-24.91 223.51-25.49 225.02-25.49L225.02-25.49 227.02-25.49Q228.54-25.49 229.88-24.91 231.22-24.34 232.22-23.34 233.22-22.34 233.8-21 234.37-19.65 234.37-18.14L234.37-18.14 234.37-6.86ZM231.37-6.69L231.37-18.31Q231.37-19.21 231.03-20.01 230.69-20.8 230.1-21.39 229.51-21.97 228.72-22.31 227.93-22.66 227.02-22.66L227.02-22.66 225.02-22.66Q224.12-22.66 223.32-22.31 222.53-21.97 221.95-21.39 221.36-20.8 221.02-20.01 220.68-19.21 220.68-18.31L220.68-18.31 220.68-6.69Q220.68-5.79 221.02-4.99 221.36-4.2 221.95-3.61 222.53-3.03 223.32-2.69 224.12-2.34 225.02-2.34L225.02-2.34 227.02-2.34Q227.93-2.34 228.72-2.69 229.51-3.03 230.1-3.61 230.69-4.2 231.03-4.99 231.37-5.79 231.37-6.69L231.37-6.69ZM257.07 0L256.07 0 254.41-2.54Q253.39-1.15 251.85-0.33 250.31 0.49 248.48 0.49L248.48 0.49 247.72 0.49Q246.21 0.49 244.87-0.09 243.52-0.66 242.52-1.66 241.52-2.66 240.95-4 240.38-5.35 240.38-6.86L240.38-6.86 240.38-25 243.38-25 243.38-6.69Q243.38-5.79 243.72-4.99 244.06-4.2 244.65-3.61 245.23-3.03 246.03-2.69 246.82-2.34 247.72-2.34L247.72-2.34 249.73-2.34Q250.63-2.34 251.42-2.69 252.22-3.03 252.8-3.61 253.39-4.2 253.73-4.99 254.07-5.79 254.07-6.69L254.07-6.69 254.07-25 257.07-25 257.07 0ZM273.43-22.14L270.43-22.14Q269.52-22.14 268.73-21.8 267.94-21.46 267.35-20.87 266.76-20.29 266.42-19.49 266.08-18.7 266.08-17.8L266.08-17.8 266.08 0 263.08 0 263.08-25 264.08-25 265.71-22.46Q266.74-23.85 268.29-24.67 269.84-25.49 271.67-25.49L271.67-25.49 273.43-25.49 273.43-22.14ZM294.62-6.35L294.62-6.35Q294.62-4.83 294.01-3.58 293.4-2.32 292.35-1.42 291.3-0.51 289.92-0.01 288.54 0.49 287.03 0.49L287.03 0.49 285.02 0.49Q283.51 0.49 282.13-0.09 280.75-0.66 279.71-1.66 278.68-2.66 278.05-4 277.43-5.35 277.43-6.86L277.43-6.86 277.43-7.86 280.43-8.35 280.43-6.69Q280.43-5.79 280.81-4.99 281.19-4.2 281.83-3.61 282.46-3.03 283.29-2.69 284.12-2.34 285.02-2.34L285.02-2.34 287.03-2.34Q287.93-2.34 288.76-2.61 289.59-2.88 290.24-3.38 290.88-3.88 291.26-4.59 291.64-5.3 291.64-6.2L291.64-6.2Q291.64-7.54 291.05-8.4 290.47-9.25 289.5-9.83 288.54-10.4 287.31-10.78 286.07-11.16 284.78-11.54 283.49-11.91 282.25-12.4 281.02-12.89 280.06-13.68 279.09-14.48 278.51-15.67 277.92-16.87 277.92-18.65L277.92-18.65Q277.92-20.17 278.51-21.42 279.09-22.68 280.09-23.58 281.09-24.49 282.42-24.99 283.75-25.49 285.27-25.49L285.27-25.49 287.03-25.49Q288.54-25.49 289.88-24.91 291.22-24.34 292.23-23.34 293.23-22.34 293.8-21 294.37-19.65 294.37-18.14L294.37-18.14 294.37-18.04 291.37-17.55 291.37-18.31Q291.37-19.21 291.03-20.01 290.69-20.8 290.1-21.39 289.52-21.97 288.72-22.31 287.93-22.66 287.03-22.66L287.03-22.66 285.27-22.66Q284.36-22.66 283.57-22.39 282.78-22.12 282.19-21.62 281.61-21.12 281.26-20.41 280.92-19.7 280.92-18.8L280.92-18.8Q280.92-17.5 281.51-16.69 282.09-15.87 283.06-15.31 284.02-14.75 285.26-14.37 286.49-13.99 287.77-13.59 289.05-13.18 290.28-12.67 291.52-12.16 292.48-11.35 293.45-10.55 294.03-9.34 294.62-8.13 294.62-6.35Z" opacity="1" transform="matrix(1,0,0,1,0,0)" fill="#ffffff" class="slogan-text-1" data-fill-palette-color="secondary" id="text-1"></path></svg></g></svg></g></svg></g></svg></g><g><svg viewBox="0 0 95.08222486055382 124.34995914777373" height="124.34995914777373" width="95.08222486055382"><g><svg xmlns="http://www.w3.org/2000/svg" xmlns:xlink="http://www.w3.org/1999/xlink" version="1.1" x="0" y="0" viewBox="17 10.1 62.7 82" style="enable-background:new 0 0 100 100;" xml:space="preserve" height="124.34995914777373" width="95.08222486055382" class="icon-icon-0" data-fill-palette-color="accent" id="icon-0"><polygon points="53.8,21.7 64.1,21.7 69.4,30.6 77.9,35.6 76.6,37.1 79.7,39 79.1,40.6 68.8,37.1 64.5,32.7 70.3,56.3 61.4,44.1 " fill="#ffffff" data-fill-palette-color="accent"></polygon><path d="M48.9 12.9L51.5 10.1S51.9 10.5 51.7 11.9 40.3 26 39.2 25.4 41.1 21.6 41.1 21.6L36.9 16 45.6 10.2z" fill="#ffffff" data-fill-palette-color="accent"></path><path d="M48.3 26.7L45.5 45.8 42.6 53.7 39.9 53.9 42.1 51.6 38.9 48 38.8 36.8S29.1 40.4 28.8 40.3C28.6 40.2 17 38.9 17 38.7S17.2 33.7 17.2 33.7L24.2 34.9 26.1 34.4 27.1 35.1 30.9 33.2 32.2 33.9 37.1 29.9H37.7L39.5 26.8 42.8 25.5 43.6 25.8 43.7 26.4 44.6 26.7 45 27.7z" fill="#ffffff" data-fill-palette-color="accent"></path><path d="M44 75.8L48 75.7 48.1 80.6 47.2 80.5V89.7L43.7 89.8 41.6 83 43.5 83.2 44.9 80C44.8 80 44.2 75.9 44 75.8" fill="#ffffff" data-fill-palette-color="accent"></path><polygon points="56.1,76.8 60.4,76.8 60.4,81.1 59.5,81.1 59.5,92.1 56.1,92.1 53.5,84.4 56.6,83.8 57.1,79.7 " fill="#ffffff" data-fill-palette-color="accent"></polygon><path d="M48 25.4L53 26.7 55.7 19.4 54.1 15.9 51.3 15.5 49.8 14 45.2 19.4 47.5 22.6 48.5 22.3 47.4 20.3 49.5 17.8S50.4 19.2 50.2 20C50 20.7 49.3 21.6 49.3 21.6L50 22.1z" fill="#ffffff" data-fill-palette-color="accent"></path><polygon points="65,50.2 65.3,58.7 49.6,63.3 55.4,76.9 46.7,79 40.7,62.7 38.7,63.4 43,75.6 36.2,78.3 30.5,58.8 51.1,49.3 " fill="#ffffff" data-fill-palette-color="accent"></polygon></svg></g></svg></g></svg></g><defs></defs></svg><rect width="395.52" height="97.90522199596732" fill="none" stroke="none" visibility="hidden"></rect></g></svg></g></svg>