<svg xmlns="http://www.w3.org/2000/svg" version="1.1" xmlns:xlink="http://www.w3.org/1999/xlink" xmlns:svgjs="http://svgjs.dev/svgjs" width="2000" height="560" viewBox="0 0 2000 560"><g transform="matrix(1,0,0,1,-1.2121212121212466,-0.9918023118009387)"><svg viewBox="0 0 396 111" data-background-color="#aaaaaa" preserveAspectRatio="xMidYMid meet" height="560" width="2000" xmlns="http://www.w3.org/2000/svg" xmlns:xlink="http://www.w3.org/1999/xlink"><g id="tight-bounds" transform="matrix(1,0,0,1,0.2400000000000091,0.19658938680339588)"><svg viewBox="0 0 395.52 110.60682122639324" height="110.60682122639324" width="395.52"><g><svg viewBox="0 0 521.5106382940313 145.8399927625661" height="110.60682122639324" width="395.52"><g transform="matrix(1,0,0,1,125.99063829403134,20.155889014218616)"><svg viewBox="0 0 395.52 105.52821473412888" height="105.52821473412888" width="395.52"><g id="textblocktransform"><svg viewBox="0 0 395.52 105.52821473412888" height="105.52821473412888" width="395.52" id="textblock"><g><svg viewBox="0 0 395.52 61.320930232558126" height="61.320930232558126" width="395.52"><g transform="matrix(1,0,0,1,0,0)"><svg width="395.52" viewBox="3.35 -37.5 322.46999999999997 50" height="61.320930232558126" data-palette-color="#ffffff"><path d="M3.35 0L16.05-34.35Q12.25-33.1 10.18-30.23 8.1-27.35 8.1-23.1L8.1-23.1Q8.1-21.2 8.45-20.5 8.8-19.8 8.8-19.65L8.8-19.65Q3.45-19.65 3.45-24.2L3.45-24.2Q3.45-27.3 5.83-30.43 8.2-33.55 11.93-35.52 15.65-37.5 19.35-37.5L19.35-37.5Q21.2-37.5 23.15-36.8L23.15-36.8 22-10.45 33-36.8 40.2-36.8 34.95 0 27.75 0 30.95-22.45 21.55 0 14.7 0 15.7-22.55 7.35 0 3.35 0ZM45.35 0.3Q42.5 0.3 40.6-1.65 38.7-3.6 38.7-7.75L38.7-7.75Q38.7-11.45 40.17-15.53 41.65-19.6 44.57-22.43 47.5-25.25 51.55-25.25L51.55-25.25Q53.6-25.25 54.6-24.55 55.6-23.85 55.6-22.7L55.6-22.7 55.6-22.35 56.15-25 63.35-25 59.75-8Q59.55-7.25 59.55-6.4L59.55-6.4Q59.55-4.25 61.6-4.25L61.6-4.25Q63-4.25 64.02-5.55 65.05-6.85 65.65-8.95L65.65-8.95 67.75-8.95Q65.9-3.55 63.17-1.63 60.45 0.3 57.7 0.3L57.7 0.3Q55.6 0.3 54.32-0.88 53.05-2.05 52.8-4.3L52.8-4.3Q51.35-2.25 49.57-0.98 47.8 0.3 45.35 0.3L45.35 0.3ZM48.6-4.55Q49.85-4.55 51.07-5.73 52.3-6.9 52.75-8.95L52.75-8.95 55.15-20.25Q55.15-20.9 54.65-21.53 54.15-22.15 53.1-22.15L53.1-22.15Q51.1-22.15 49.5-19.83 47.9-17.5 47-14.23 46.1-10.95 46.1-8.45L46.1-8.45Q46.1-5.95 46.82-5.25 47.55-4.55 48.6-4.55L48.6-4.55ZM73.45 12.5Q71.05 12.5 69.45 11.25 67.85 10 67.85 7.65L67.85 7.65Q67.85 4.8 70.15 3.08 72.45 1.35 76 0.2L76 0.2 76.6-2.5Q75.15-0.9 73.65-0.3 72.15 0.3 70.6 0.3L70.6 0.3Q68.2 0.3 66.72-1.2 65.25-2.7 65.25-5.7L65.25-5.7Q65.25-6.95 65.65-8.95L65.65-8.95 69.05-25 76.25-25 72.65-8Q72.5-7.4 72.5-6.75L72.5-6.75Q72.5-4.55 74-4.55L74-4.55Q75.3-4.55 76.3-5.68 77.3-6.8 77.9-8.65L77.9-8.65 81.4-25 88.6-25 83.65-1.8Q86.05-2.6 87.5-4.2 88.95-5.8 89.95-8.95L89.95-8.95 92.05-8.95Q90.7-4.5 88.4-2.43 86.1-0.35 83.2 0.4L83.2 0.4 82.45 4Q81.45 8.85 79 10.68 76.55 12.5 73.45 12.5L73.45 12.5ZM72.3 8.6Q73.15 8.6 73.95 7.45 74.75 6.3 75.2 4.15L75.2 4.15 75.5 2.7Q70.6 4.5 70.6 6.95L70.6 6.95Q70.6 7.6 71.05 8.1 71.5 8.6 72.3 8.6L72.3 8.6ZM108.74 0.3Q105.64 0.3 104.04-1.18 102.44-2.65 102.44-5.4L102.44-5.4Q102.44-6.6 102.74-8L102.74-8 103.14-9.95Q103.34-10.8 103.34-11.8L103.34-11.8Q103.34-14.2 101.54-14.2L101.54-14.2Q100.74-14.2 99.87-13.75 98.99-13.3 97.84-12.35L97.84-12.35 95.24 0 88.04 0 95.29-34 102.69-35 98.94-17.4 108.59-25 113.54-25 103.54-18.05Q104.29-18.25 105.19-18.25L105.19-18.25Q107.89-18.25 109.29-16.6 110.69-14.95 110.69-12.4L110.69-12.4Q110.69-11.35 110.49-10.5L110.49-10.5 109.94-8Q109.69-7.1 109.69-6.4L109.69-6.4Q109.69-4.55 111.64-4.55L111.64-4.55Q113.14-4.55 114.04-5.63 114.94-6.7 115.84-8.95L115.84-8.95 117.94-8.95Q114.84 0.3 108.74 0.3L108.74 0.3ZM122.99 0.3Q119.29 0.3 117.24-1.63 115.19-3.55 115.19-7.65L115.19-7.65Q115.19-11.1 116.54-15.25 117.89-19.4 120.94-22.43 123.99-25.45 128.69-25.45L128.69-25.45Q134.19-25.45 134.19-20.65L134.19-20.65Q134.19-17.85 132.59-15.5 130.99-13.15 128.34-11.73 125.69-10.3 122.69-10.1L122.69-10.1Q122.59-8.6 122.59-8.1L122.59-8.1Q122.59-5.65 123.44-4.78 124.29-3.9 126.19-3.9L126.19-3.9Q128.89-3.9 130.82-5.15 132.74-6.4 135.04-8.95L135.04-8.95 136.74-8.95Q131.19 0.3 122.99 0.3L122.99 0.3ZM123.09-12.5Q124.94-12.6 126.62-13.8 128.29-15 129.32-16.85 130.34-18.7 130.34-20.75L130.34-20.75Q130.34-22.8 129.09-22.8L129.09-22.8Q127.29-22.8 125.57-19.65 123.84-16.5 123.09-12.5L123.09-12.5ZM139.99 0.3Q137.59 0.3 136.11-1.2 134.64-2.7 134.64-5.7L134.64-5.7Q134.64-6.95 135.04-8.95L135.04-8.95 140.39-34 147.79-35 142.04-8Q141.84-7.25 141.84-6.4L141.84-6.4Q141.84-5.4 142.31-4.98 142.79-4.55 143.89-4.55L143.89-4.55Q145.34-4.55 146.59-5.78 147.84-7 148.39-8.95L148.39-8.95 150.49-8.95Q148.64-3.55 145.74-1.63 142.84 0.3 139.99 0.3L139.99 0.3ZM167.48 10.35Q163.93 10.35 162.01 8.43 160.08 6.5 160.08 3.3L160.08 3.3Q160.08 0.6 161.73-1.4 163.38-3.4 166.18-3.4L166.18-3.4Q168.33-3.4 169.71-2.78 171.08-2.15 171.08-0.05L171.08-0.05Q171.08 0.85 170.78 1.95L170.78 1.95Q169.88 1.2 169.23 0.93 168.58 0.65 167.78 0.65L167.78 0.65Q166.13 0.65 165.21 1.75 164.28 2.85 164.28 4.35L164.28 4.35Q164.28 6.1 165.33 6.98 166.38 7.85 167.68 7.85L167.68 7.85Q168.88 7.85 169.71 7.38 170.53 6.9 171.18 5.58 171.83 4.25 172.43 1.7L172.43 1.7 180.28-34Q176.93-32.65 175.08-29.85 173.23-27.05 173.23-23.05L173.23-23.05Q173.23-21.2 173.58-20.48 173.93-19.75 173.93-19.65L173.93-19.65Q171.23-19.65 169.91-20.78 168.58-21.9 168.58-24.5L168.58-24.5Q168.58-27.7 171.21-30.73 173.83-33.75 177.93-35.63 182.03-37.5 186.13-37.5L186.13-37.5 188.13-37.5 180.63-2Q179.33 4.15 176.33 7.25 173.33 10.35 167.48 10.35L167.48 10.35ZM192.03 0.3Q189.18 0.3 187.28-1.65 185.38-3.6 185.38-7.75L185.38-7.75Q185.38-11.45 186.86-15.53 188.33-19.6 191.26-22.43 194.18-25.25 198.23-25.25L198.23-25.25Q200.28-25.25 201.28-24.55 202.28-23.85 202.28-22.7L202.28-22.7 202.28-22.35 202.83-25 210.03-25 206.43-8Q206.23-7.25 206.23-6.4L206.23-6.4Q206.23-4.25 208.28-4.25L208.28-4.25Q209.68-4.25 210.71-5.55 211.73-6.85 212.33-8.95L212.33-8.95 214.43-8.95Q212.58-3.55 209.86-1.63 207.13 0.3 204.38 0.3L204.38 0.3Q202.28 0.3 201.01-0.88 199.73-2.05 199.48-4.3L199.48-4.3Q198.03-2.25 196.26-0.98 194.48 0.3 192.03 0.3L192.03 0.3ZM195.28-4.55Q196.53-4.55 197.76-5.73 198.98-6.9 199.43-8.95L199.43-8.95 201.83-20.25Q201.83-20.9 201.33-21.53 200.83-22.15 199.78-22.15L199.78-22.15Q197.78-22.15 196.18-19.83 194.58-17.5 193.68-14.23 192.78-10.95 192.78-8.45L192.78-8.45Q192.78-5.95 193.51-5.25 194.23-4.55 195.28-4.55L195.28-4.55ZM219.48 0.3Q215.78 0.3 213.73-1.63 211.68-3.55 211.68-7.65L211.68-7.65Q211.68-11.1 213.05-15.25 214.43-19.4 217.45-22.43 220.48-25.45 225.13-25.45L225.13-25.45Q228.13-25.45 229.4-24.15 230.68-22.85 230.68-20.85L230.68-20.85Q230.68-19.1 229.93-18.15 229.18-17.2 228.03-17.2L228.03-17.2Q227.18-17.2 226.28-17.8L226.28-17.8Q226.88-19.45 226.88-20.75L226.88-20.75Q226.88-21.7 226.53-22.25 226.18-22.8 225.48-22.8L225.48-22.8Q223.98-22.8 222.48-20.35 220.98-17.9 220.03-14.4 219.08-10.9 219.08-8.1L219.08-8.1Q219.08-5.65 219.93-4.78 220.78-3.9 222.68-3.9L222.68-3.9Q225.38-3.9 227.3-5.15 229.23-6.4 231.53-8.95L231.53-8.95 233.23-8.95Q227.68 0.3 219.48 0.3L219.48 0.3ZM250.33 0.3Q247.23 0.3 245.63-1.18 244.03-2.65 244.03-5.4L244.03-5.4Q244.03-6.6 244.33-8L244.33-8 244.73-9.95Q244.93-10.8 244.93-11.8L244.93-11.8Q244.93-14.2 243.13-14.2L243.13-14.2Q242.33-14.2 241.45-13.75 240.58-13.3 239.43-12.35L239.43-12.35 236.83 0 229.63 0 236.88-34 244.28-35 240.53-17.4 250.18-25 255.13-25 245.13-18.05Q245.88-18.25 246.78-18.25L246.78-18.25Q249.48-18.25 250.88-16.6 252.28-14.95 252.28-12.4L252.28-12.4Q252.28-11.35 252.08-10.5L252.08-10.5 251.53-8Q251.28-7.1 251.28-6.4L251.28-6.4Q251.28-4.55 253.23-4.55L253.23-4.55Q254.73-4.55 255.63-5.63 256.53-6.7 257.43-8.95L257.43-8.95 259.53-8.95Q256.43 0.3 250.33 0.3L250.33 0.3ZM263.12 0.3Q260.72 0.3 259.07-0.63 257.42-1.55 256.62-3.03 255.82-4.5 255.82-6.1L255.82-6.1Q255.82-7.75 256.6-8.97 257.37-10.2 258.47-10.75L258.47-10.75Q260.42-14.25 261.87-17.82 263.32-21.4 264.62-25.55L264.62-25.55 272.02-26.55Q272.27-20.15 272.87-12.7L272.87-12.7Q273.12-9.7 273.12-8.35L273.12-8.35Q273.12-7.2 272.92-6.45L272.92-6.45Q275.27-7.8 276.52-8.95L276.52-8.95 278.62-8.95Q275.42-5.25 270.97-2.7L270.97-2.7Q269.52-1.15 267.4-0.43 265.27 0.3 263.12 0.3L263.12 0.3ZM261.52-3.65Q263.37-3.65 264.62-4.75 265.87-5.85 265.87-8.3L265.87-8.3Q265.87-9.8 265.57-12.5L265.57-12.5Q265.07-18.2 264.92-20.15L264.92-20.15Q263.72-16.2 260.87-10.7L260.87-10.7Q262.02-10.1 262.02-8.95L262.02-8.95Q262.02-8 261.4-7.25 260.77-6.5 259.82-6.5L259.82-6.5Q258.77-6.5 258.47-7.15L258.47-7.15Q258.47-5.35 259.2-4.5 259.92-3.65 261.52-3.65L261.52-3.65ZM283.82 0.2Q280.12 0.2 277.97-1.7 275.82-3.6 275.82-7.7L275.82-7.7Q275.82-11.1 277.22-15.25 278.62-19.4 281.72-22.43 284.82-25.45 289.52-25.45L289.52-25.45Q295.92-25.45 295.92-17.45L295.92-17.45 295.92-17.4Q296.07-17.35 296.47-17.35L296.47-17.35Q298.12-17.35 300.27-18.23 302.42-19.1 304.17-20.35L304.17-20.35 304.62-19Q303.17-17.45 300.85-16.38 298.52-15.3 295.77-14.85L295.77-14.85Q295.37-10.3 293.72-6.9 292.07-3.5 289.47-1.65 286.87 0.2 283.82 0.2L283.82 0.2ZM285.82-4.3Q287.02-4.3 288.22-5.68 289.42-7.05 290.32-9.43 291.22-11.8 291.62-14.7L291.62-14.7Q290.27-15 290.27-16.8L290.27-16.8Q290.27-18.85 291.82-19.5L291.82-19.5Q291.72-21.15 291.32-21.78 290.92-22.4 289.92-22.4L289.92-22.4Q288.27-22.4 286.72-20 285.17-17.6 284.22-14.25 283.27-10.9 283.27-8.35L283.27-8.35Q283.27-5.95 283.82-5.13 284.37-4.3 285.82-4.3L285.82-4.3ZM316.52 0.3Q313.47 0.3 312.04-1.33 310.62-2.95 310.62-5.35L310.62-5.35Q310.62-6.4 310.87-7.73 311.12-9.05 311.39-10.3 311.67-11.55 311.77-11.9L311.77-11.9Q312.17-13.65 312.52-15.35 312.87-17.05 312.87-18.1L312.87-18.1Q312.87-20.65 311.07-20.65L311.07-20.65Q309.77-20.65 308.77-19.38 307.77-18.1 307.17-16.05L307.17-16.05 303.77 0 296.57 0 301.87-25 309.07-25 308.52-22.4Q311.02-25.2 314.37-25.2L314.37-25.2Q316.92-25.2 318.42-23.8 319.92-22.4 319.92-19.55L319.92-19.55Q319.92-18.1 319.57-16.32 319.22-14.55 318.57-12L318.57-12Q318.17-10.45 317.84-8.97 317.52-7.5 317.52-6.65L317.52-6.65Q317.52-5.65 317.97-5.1 318.42-4.55 319.52-4.55L319.52-4.55Q321.02-4.55 321.92-5.63 322.82-6.7 323.72-8.95L323.72-8.95 325.82-8.95Q323.97-3.45 321.54-1.58 319.12 0.3 316.52 0.3L316.52 0.3Z" opacity="1" transform="matrix(1,0,0,1,0,0)" fill="#ffffff" class="wordmark-text-0" data-fill-palette-color="primary" id="text-0"></path></svg></g></svg></g><g transform="matrix(1,0,0,1,0,75.79733015813952)"><svg viewBox="0 0 232.209792 29.730884575989354" height="29.730884575989354" width="232.209792"><g transform="matrix(1,0,0,1,0,0)"><svg width="232.209792" viewBox="0.3 -37.6 300.87 38.5" height="29.730884575989354" data-palette-color="#ffffff"><path d="M7.85 0L14.95-33.1 14.35-33.1Q9.9-33.1 7.43-30.88 4.95-28.65 4.95-23L4.95-23Q4.95-21.15 5.3-20.43 5.65-19.7 5.65-19.6L5.65-19.6Q2.95-19.6 1.63-20.73 0.3-21.85 0.3-24.45L0.3-24.45Q0.3-28 2.05-30.93 3.8-33.85 7.63-35.65 11.45-37.45 17.35-37.45L17.35-37.45Q20.65-37.45 24.45-36.85L24.45-36.85Q27.65-36.3 30.15-36.3L30.15-36.3Q33.35-36.3 35.95-37.35L35.95-37.35Q35.85-34.1 34.3-32.55 32.75-31 29.7-31L29.7-31Q28.1-31 26.5-31.25 24.9-31.5 21.95-32.1L21.95-32.1 15.05 0 7.85 0ZM32.4-27.7Q30.75-27.7 29.6-28.85 28.45-30 28.45-31.65L28.45-31.65Q28.45-33.3 29.6-34.48 30.75-35.65 32.4-35.65L32.4-35.65Q34.05-35.65 35.22-34.48 36.4-33.3 36.4-31.65L36.4-31.65Q36.4-30 35.22-28.85 34.05-27.7 32.4-27.7L32.4-27.7ZM29 0.3Q26.6 0.3 25.12-1.2 23.65-2.7 23.65-5.7L23.65-5.7Q23.65-6.95 24.05-8.95L24.05-8.95 27.45-25 34.65-25 31.05-8Q30.85-7.25 30.85-6.4L30.85-6.4Q30.85-5.4 31.32-4.98 31.8-4.55 32.9-4.55L32.9-4.55Q34.35-4.55 35.6-5.78 36.85-7 37.4-8.95L37.4-8.95 39.5-8.95Q37.65-3.55 34.75-1.63 31.85 0.3 29 0.3L29 0.3ZM44.55 0.3Q40.85 0.3 38.8-1.63 36.75-3.55 36.75-7.65L36.75-7.65Q36.75-11.1 38.12-15.25 39.5-19.4 42.52-22.43 45.55-25.45 50.2-25.45L50.2-25.45Q53.2-25.45 54.47-24.15 55.75-22.85 55.75-20.85L55.75-20.85Q55.75-19.1 55-18.15 54.25-17.2 53.1-17.2L53.1-17.2Q52.25-17.2 51.35-17.8L51.35-17.8Q51.95-19.45 51.95-20.75L51.95-20.75Q51.95-21.7 51.6-22.25 51.25-22.8 50.55-22.8L50.55-22.8Q49.05-22.8 47.55-20.35 46.05-17.9 45.1-14.4 44.15-10.9 44.15-8.1L44.15-8.1Q44.15-5.65 45-4.78 45.85-3.9 47.75-3.9L47.75-3.9Q50.45-3.9 52.37-5.15 54.3-6.4 56.6-8.95L56.6-8.95 58.3-8.95Q52.75 0.3 44.55 0.3L44.55 0.3ZM75.39 0.3Q72.29 0.3 70.69-1.18 69.09-2.65 69.09-5.4L69.09-5.4Q69.09-6.6 69.39-8L69.39-8 69.79-9.95Q69.99-10.8 69.99-11.8L69.99-11.8Q69.99-14.2 68.19-14.2L68.19-14.2Q67.39-14.2 66.52-13.75 65.64-13.3 64.49-12.35L64.49-12.35 61.89 0 54.69 0 61.94-34 69.34-35 65.59-17.4 75.24-25 80.19-25 70.19-18.05Q70.94-18.25 71.84-18.25L71.84-18.25Q74.54-18.25 75.94-16.6 77.34-14.95 77.34-12.4L77.34-12.4Q77.34-11.35 77.14-10.5L77.14-10.5 76.59-8Q76.34-7.1 76.34-6.4L76.34-6.4Q76.34-4.55 78.29-4.55L78.29-4.55Q79.79-4.55 80.69-5.63 81.59-6.7 82.49-8.95L82.49-8.95 84.59-8.95Q81.49 0.3 75.39 0.3L75.39 0.3ZM89.64 0.3Q85.94 0.3 83.89-1.63 81.84-3.55 81.84-7.65L81.84-7.65Q81.84-11.1 83.19-15.25 84.54-19.4 87.59-22.43 90.64-25.45 95.34-25.45L95.34-25.45Q100.84-25.45 100.84-20.65L100.84-20.65Q100.84-17.85 99.24-15.5 97.64-13.15 94.99-11.73 92.34-10.3 89.34-10.1L89.34-10.1Q89.24-8.6 89.24-8.1L89.24-8.1Q89.24-5.65 90.09-4.78 90.94-3.9 92.84-3.9L92.84-3.9Q95.54-3.9 97.47-5.15 99.39-6.4 101.69-8.95L101.69-8.95 103.39-8.95Q97.84 0.3 89.64 0.3L89.64 0.3ZM89.74-12.5Q91.59-12.6 93.27-13.8 94.94-15 95.97-16.85 96.99-18.7 96.99-20.75L96.99-20.75Q96.99-22.8 95.74-22.8L95.74-22.8Q93.94-22.8 92.22-19.65 90.49-16.5 89.74-12.5L89.74-12.5ZM106.64 0.3Q104.24 0.3 102.76-1.2 101.29-2.7 101.29-5.7L101.29-5.7Q101.29-6.95 101.69-8.95L101.69-8.95 104.69-23 103.04-23 103.44-25 105.09-25 106.59-31.9 113.99-32.9 112.29-25 115.29-25 114.89-23 111.89-23 108.69-8Q108.49-7.25 108.49-6.4L108.49-6.4Q108.49-5.4 108.96-4.98 109.44-4.55 110.54-4.55L110.54-4.55Q111.99-4.55 113.24-5.78 114.49-7 115.04-8.95L115.04-8.95 117.14-8.95Q115.29-3.55 112.39-1.63 109.49 0.3 106.64 0.3L106.64 0.3ZM120.74 0.3Q118.34 0.3 116.69-0.63 115.04-1.55 114.24-3.03 113.44-4.5 113.44-6.1L113.44-6.1Q113.44-7.75 114.21-8.97 114.99-10.2 116.09-10.75L116.09-10.75Q118.04-14.25 119.49-17.82 120.94-21.4 122.24-25.55L122.24-25.55 129.64-26.55Q129.89-20.15 130.49-12.7L130.49-12.7Q130.74-9.7 130.74-8.35L130.74-8.35Q130.74-7.2 130.54-6.45L130.54-6.45Q132.89-7.8 134.14-8.95L134.14-8.95 136.24-8.95Q133.04-5.25 128.59-2.7L128.59-2.7Q127.14-1.15 125.01-0.43 122.89 0.3 120.74 0.3L120.74 0.3ZM119.14-3.65Q120.99-3.65 122.24-4.75 123.49-5.85 123.49-8.3L123.49-8.3Q123.49-9.8 123.19-12.5L123.19-12.5Q122.69-18.2 122.54-20.15L122.54-20.15Q121.34-16.2 118.49-10.7L118.49-10.7Q119.64-10.1 119.64-8.95L119.64-8.95Q119.64-8 119.01-7.25 118.39-6.5 117.44-6.5L117.44-6.5Q116.39-6.5 116.09-7.15L116.09-7.15Q116.09-5.35 116.81-4.5 117.54-3.65 119.14-3.65L119.14-3.65ZM177.83-20.25Q177.98-19.65 177.98-19.1L177.98-19.1Q177.98-17.35 176.66-15.8 175.33-14.25 173.33-13.6L173.33-13.6Q172.48-13.35 171.33-13.35L171.33-13.35Q170.88-9.1 168.81-5.88 166.73-2.65 163.38-0.88 160.03 0.9 155.88 0.9L155.88 0.9Q151.13 0.9 148.41-1.5 145.68-3.9 145.68-8L145.68-8Q145.68-10.75 146.91-13.43 148.13-16.1 150.26-18.05 152.38-20 154.93-20.75L154.93-20.75 154.93-20.95Q153.38-22.25 152.73-23.7 152.08-25.15 152.08-27.3L152.08-27.3Q152.08-30 153.56-32.38 155.03-34.75 157.56-36.18 160.08-37.6 163.03-37.6L163.03-37.6Q166.43-37.6 168.63-35.65 170.83-33.7 170.83-30.7L170.83-30.7Q170.83-28.65 169.78-27.35 168.73-26.05 167.03-26.05L167.03-26.05Q165.13-26.05 163.98-27.6L163.98-27.6Q164.88-28.15 165.46-29.3 166.03-30.45 166.03-31.75L166.03-31.75Q166.03-33.15 165.33-33.95 164.63-34.75 163.43-34.75L163.43-34.75Q162.13-34.75 160.93-33.75 159.73-32.75 159.01-31.08 158.28-29.4 158.28-27.55L158.28-27.55Q158.28-25.05 159.63-23.33 160.98-21.6 163.33-21L163.33-21 163.33-20.8Q160.98-20.35 158.91-18.63 156.83-16.9 155.61-14.43 154.38-11.95 154.38-9.4L154.38-9.4Q154.38-6.8 155.68-5.35 156.98-3.9 159.28-3.9L159.28-3.9Q161.43-3.9 163.53-5.1 165.63-6.3 167.13-8.45 168.63-10.6 169.13-13.3L169.13-13.3Q168.03-13.3 166.83-13L166.83-13Q164.08-12.1 162.88-10.35L162.88-10.35 162.73-10.3Q162.18-11 161.83-12.1L161.83-12.1Q161.63-12.7 161.63-13.4L161.63-13.4Q161.63-15.1 162.83-16.45 164.03-17.8 165.83-18.35L165.83-18.35Q167.23-18.75 169.68-18.95L169.68-18.95Q171.33-19.05 172.53-19.3L172.53-19.3Q173.68-19.65 174.86-20.48 176.03-21.3 176.63-22.1L176.63-22.1 176.73-22.1Q177.48-21.35 177.83-20.25L177.83-20.25ZM197.78 0L204.88-33.1 204.28-33.1Q199.83-33.1 197.35-30.88 194.88-28.65 194.88-23L194.88-23Q194.88-21.15 195.23-20.43 195.58-19.7 195.58-19.6L195.58-19.6Q192.88-19.6 191.55-20.73 190.23-21.85 190.23-24.45L190.23-24.45Q190.23-28 191.98-30.93 193.73-33.85 197.55-35.65 201.38-37.45 207.28-37.45L207.28-37.45Q210.58-37.45 214.38-36.85L214.38-36.85Q217.58-36.3 220.08-36.3L220.08-36.3Q223.28-36.3 225.88-37.35L225.88-37.35Q225.78-34.1 224.23-32.55 222.68-31 219.63-31L219.63-31Q218.03-31 216.43-31.25 214.83-31.5 211.88-32.1L211.88-32.1 204.98 0 197.78 0ZM221.27 0.2Q217.57 0.2 215.42-1.7 213.27-3.6 213.27-7.7L213.27-7.7Q213.27-11.1 214.67-15.25 216.07-19.4 219.17-22.43 222.27-25.45 226.97-25.45L226.97-25.45Q233.37-25.45 233.37-17.45L233.37-17.45 233.37-17.4Q233.52-17.35 233.92-17.35L233.92-17.35Q235.57-17.35 237.72-18.23 239.87-19.1 241.62-20.35L241.62-20.35 242.07-19Q240.62-17.45 238.3-16.38 235.97-15.3 233.22-14.85L233.22-14.85Q232.82-10.3 231.17-6.9 229.52-3.5 226.92-1.65 224.32 0.2 221.27 0.2L221.27 0.2ZM223.27-4.3Q224.47-4.3 225.67-5.68 226.87-7.05 227.77-9.43 228.67-11.8 229.07-14.7L229.07-14.7Q227.72-15 227.72-16.8L227.72-16.8Q227.72-18.85 229.27-19.5L229.27-19.5Q229.17-21.15 228.77-21.78 228.37-22.4 227.37-22.4L227.37-22.4Q225.72-22.4 224.17-20 222.62-17.6 221.67-14.25 220.72-10.9 220.72-8.35L220.72-8.35Q220.72-5.95 221.27-5.13 221.82-4.3 223.27-4.3L223.27-4.3ZM240.87 0.3Q238.47 0.3 237-1.2 235.52-2.7 235.52-5.7L235.52-5.7Q235.52-6.95 235.92-8.95L235.92-8.95 239.32-25 246.52-25 242.92-8Q242.77-7.25 242.77-6.6L242.77-6.6Q242.77-4.55 244.27-4.55L244.27-4.55Q245.67-4.55 246.67-5.73 247.67-6.9 248.27-8.95L248.27-8.95 251.67-25 258.87-25 255.27-8Q255.07-7.25 255.07-6.4L255.07-6.4Q255.07-5.4 255.55-4.98 256.02-4.55 257.12-4.55L257.12-4.55Q258.52-4.55 259.55-5.75 260.57-6.95 261.17-8.95L261.17-8.95 263.27-8.95Q261.42-3.55 258.69-1.63 255.97 0.3 253.22 0.3L253.22 0.3Q251.07 0.3 249.8-0.9 248.52-2.1 248.27-4.45L248.27-4.45Q246.57-1.7 244.7-0.7 242.82 0.3 240.87 0.3L240.87 0.3ZM259.27 0L264.57-25 271.77-25 271.12-21.9Q272.82-23.4 274.19-24.2 275.57-25 277.17-25L277.17-25Q278.77-25 279.69-23.9 280.62-22.8 280.62-21.25L280.62-21.25Q280.62-19.8 279.67-18.7 278.72-17.6 277.02-17.6L277.02-17.6Q275.92-17.6 275.54-18.13 275.17-18.65 274.97-19.65L274.97-19.65Q274.82-20.3 274.67-20.6 274.52-20.9 274.12-20.9L274.12-20.9Q273.07-20.9 272.34-20.48 271.62-20.05 270.47-19L270.47-19 266.47 0 259.27 0ZM285.67 0.3Q283.27 0.3 281.62-0.63 279.97-1.55 279.17-3.03 278.37-4.5 278.37-6.1L278.37-6.1Q278.37-7.75 279.14-8.97 279.92-10.2 281.02-10.75L281.02-10.75Q282.97-14.25 284.42-17.82 285.87-21.4 287.17-25.55L287.17-25.55 294.57-26.55Q294.82-20.15 295.42-12.7L295.42-12.7Q295.67-9.7 295.67-8.35L295.67-8.35Q295.67-7.2 295.47-6.45L295.47-6.45Q297.82-7.8 299.07-8.95L299.07-8.95 301.17-8.95Q297.97-5.25 293.52-2.7L293.52-2.7Q292.07-1.15 289.94-0.43 287.82 0.3 285.67 0.3L285.67 0.3ZM284.07-3.65Q285.92-3.65 287.17-4.75 288.42-5.85 288.42-8.3L288.42-8.3Q288.42-9.8 288.12-12.5L288.12-12.5Q287.62-18.2 287.47-20.15L287.47-20.15Q286.27-16.2 283.42-10.7L283.42-10.7Q284.57-10.1 284.57-8.95L284.57-8.95Q284.57-8 283.94-7.25 283.32-6.5 282.37-6.5L282.37-6.5Q281.32-6.5 281.02-7.15L281.02-7.15Q281.02-5.35 281.74-4.5 282.47-3.65 284.07-3.65L284.07-3.65Z" opacity="1" transform="matrix(1,0,0,1,0,0)" fill="#ffffff" class="slogan-text-1" data-fill-palette-color="secondary" id="text-1"></path></svg></g></svg></g></svg></g></svg></g><g><svg viewBox="0 0 111.51423836844995 145.8399927625661" height="145.8399927625661" width="111.51423836844995"><g><svg xmlns="http://www.w3.org/2000/svg" xmlns:xlink="http://www.w3.org/1999/xlink" version="1.1" x="0" y="0" viewBox="17 10.1 62.7 82" style="enable-background:new 0 0 100 100;" xml:space="preserve" height="145.8399927625661" width="111.51423836844995" class="icon-icon-0" data-fill-palette-color="accent" id="icon-0"><polygon points="53.8,21.7 64.1,21.7 69.4,30.6 77.9,35.6 76.6,37.1 79.7,39 79.1,40.6 68.8,37.1 64.5,32.7 70.3,56.3 61.4,44.1 " fill="#ffffff" data-fill-palette-color="accent"></polygon><path d="M48.9 12.9L51.5 10.1S51.9 10.5 51.7 11.9 40.3 26 39.2 25.4 41.1 21.6 41.1 21.6L36.9 16 45.6 10.2z" fill="#ffffff" data-fill-palette-color="accent"></path><path d="M48.3 26.7L45.5 45.8 42.6 53.7 39.9 53.9 42.1 51.6 38.9 48 38.8 36.8S29.1 40.4 28.8 40.3C28.6 40.2 17 38.9 17 38.7S17.2 33.7 17.2 33.7L24.2 34.9 26.1 34.4 27.1 35.1 30.9 33.2 32.2 33.9 37.1 29.9H37.7L39.5 26.8 42.8 25.5 43.6 25.8 43.7 26.4 44.6 26.7 45 27.7z" fill="#ffffff" data-fill-palette-color="accent"></path><path d="M44 75.8L48 75.7 48.1 80.6 47.2 80.5V89.7L43.7 89.8 41.6 83 43.5 83.2 44.9 80C44.8 80 44.2 75.9 44 75.8" fill="#ffffff" data-fill-palette-color="accent"></path><polygon points="56.1,76.8 60.4,76.8 60.4,81.1 59.5,81.1 59.5,92.1 56.1,92.1 53.5,84.4 56.6,83.8 57.1,79.7 " fill="#ffffff" data-fill-palette-color="accent"></polygon><path d="M48 25.4L53 26.7 55.7 19.4 54.1 15.9 51.3 15.5 49.8 14 45.2 19.4 47.5 22.6 48.5 22.3 47.4 20.3 49.5 17.8S50.4 19.2 50.2 20C50 20.7 49.3 21.6 49.3 21.6L50 22.1z" fill="#ffffff" data-fill-palette-color="accent"></path><polygon points="65,50.2 65.3,58.7 49.6,63.3 55.4,76.9 46.7,79 40.7,62.7 38.7,63.4 43,75.6 36.2,78.3 30.5,58.8 51.1,49.3 " fill="#ffffff" data-fill-palette-color="accent"></polygon></svg></g></svg></g></svg></g><defs></defs></svg><rect width="395.52" height="110.60682122639324" fill="none" stroke="none" visibility="hidden"></rect></g></svg></g></svg>